# xmcd
#
# Track frame offsets: 
#        150
#        22875
#        44705
#        59930
#        77630
#        95293
#        117424
#        135525
#        148813
#        163015
#        178270
#        199906
#        222137
#        240584
#
# Disc length: 3607 seconds
#
# Revision: 0
# Processed by: cddbd v1.5.2PL0 Copyright (c) Steve Scherf et al.
# Submitted via: ExactAudioCopyFreeDBPlugin 1.0
#
DISCID=d10e150e
DTITLE=Beverly Wright - Mister Midnight
DYEAR=1900
DGENRE=Blues
TTITLE0=Don't look any further
TTITLE1=Carribean Queen
TTITLE2=Knock on wood
TTITLE3=You might need somebody
TTITLE4=Signed, sealed, delivered
TTITLE5=My lady soul
TTITLE6=Something got me started
TTITLE7=Soul man
TTITLE8=Dock of the bay
TTITLE9=Walk on by
TTITLE10=What have i done wrong?
TTITLE11=Teardrops
TTITLE12=Superstition
TTITLE13=Story of the blues
EXTD=
EXTT0=
EXTT1=
EXTT2=
EXTT3=
EXTT4=
EXTT5=
EXTT6=
EXTT7=
EXTT8=
EXTT9=
EXTT10=
EXTT11=
EXTT12=
EXTT13=
PLAYORDER=
